#!OML:ASF F:\VICON\USERDATA\INSTALL\rory3\rory3.ASF
:FULLY-SPECIFIED
:DEGREES
1551
root -12.4744 17.8155 16.5014 360.804 -247.229 0.905702
lowerback 10.8005 2.03251 -2.22175
upperback 0.736216 2.46973 -0.13875
thorax -5.37394 1.28626 0.725804
lowerneck -17.4284 -4.9461 -10.1391
upperneck 31.4686 -5.57003 7.82383
head 14.2343 -2.21402 4.05889
rclavicle 2.51463e-014 -1.19271e-015
rhumerus -33.8371 -8.17751 -84.9569
rradius 29.8327
rwrist 4.6158
rhand -17.1966 6.1535
rfingers 7.12502
rthumb 9.04563 -23.6325
lclavicle 2.51463e-014 -1.19271e-015
lhumerus -32.287 5.3368 79.1977
lradius 34.6986
lwrist -0.45184
lhand -20.4325 25.9387
lfingers 7.12502
lthumb 5.92229 55.836
rfemur -7.7988 -6.42337 27.4145
rtibia 26.9725
rfoot -15.9162 -7.59181
rtoes 8.47069
lfemur -10.5082 5.43462 -16.2192
ltibia 53.4852
lfoot -6.83009 -2.33986
ltoes 0.197527
1552
root -12.4004 17.8126 16.4651 359.806 -248.39 -0.00832216
lowerback 10.7093 2.20811 -2.43461
upperback 0.821278 2.67899 -0.214064
thorax -5.2464 1.39287 0.739488
lowerneck -17.4799 -4.99468 -10.1649
upperneck 31.6362 -5.55048 7.58348
head 14.3117 -2.24131 3.97294
rclavicle -6.37105e-014 1.49089e-014
rhumerus -33.7739 -8.28273 -84.6838
rradius 29.8675
rwrist 4.43592
rhand -16.8682 6.22949
rfingers 7.12502
rthumb 9.36252 -23.5426
lclavicle -6.37105e-014 1.49089e-014
lhumerus -32.5446 5.28256 79.4806
lradius 34.9449
lwrist -0.838133
lhand -20.5128 26.2864
lfingers 7.12502
lthumb 5.84473 56.1857
rfemur -7.25379 -5.89079 26.9107
rtibia 26.9829
rfoot -16.2886 -6.99779
rtoes 9.25685
lfemur -10.7547 4.7872 -16.7683
ltibia 53.6686
lfoot -7.08542 -4.45414
ltoes 1.04608
1553
root -12.3411 17.7989 16.4465 360.452 -249.08 0.664251
lowerback 10.7548 2.18398 -2.06937
upperback 0.787255 2.68978 -0.168469
thorax -5.29318 1.39003 0.578136
lowerneck -17.4659 -5.05681 -10.0731
upperneck 31.7669 -5.56189 7.2439
head 14.3536 -2.28251 3.81755
rclavicle -4.4006e-014 -4.57205e-015
rhumerus -33.7081 -8.72679 -84.405
rradius 29.8783
rwrist 4.48182
rhand -16.3801 6.31229
rfingers 7.12502
rthumb 9.83343 -23.4381
lclavicle -4.4006e-014 -4.57205e-015
lhumerus -32.8684 5.24708 79.6827
lradius 35.1898
lwrist -1.17359
lhand -20.8706 26.3091
lfingers 7.12502
lthumb 5.49926 56.2178
rfemur -7.05779 -5.24395 27.2237
rtibia 27.042
rfoot -16.542 -6.99678
rtoes 10.3527
lfemur -11.4723 3.9346 -16.5861
ltibia 53.8987
lfoot -7.24973 -6.36557
ltoes -2.17495
1554
root -12.2812 17.7816 16.4246 361.24 -249.917 1.48355
lowerback 10.8701 2.19064 -1.57123
upperback 0.688184 2.75102 -0.199066
thorax -5.43837 1.40777 0.250501
lowerneck -17.3108 -5.05584 -9.988
upperneck 31.7989 -5.5685 7.14069
head 14.3268 -2.29134 3.76048
rclavicle 4.93731e-014 5.96354e-016
rhumerus -33.7312 -9.30214 -84.2071
rradius 29.8911
rwrist 4.61706
rhand -15.8652 6.50794
rfingers 7.12502
rthumb 10.3302 -23.2183
lclavicle 4.93731e-014 5.96354e-016
lhumerus -33.2489 5.11836 79.7312
lradius 35.4456
lwrist -1.3158
lhand -21.0241 26.3274
lfingers 7.12502
lthumb 5.35112 56.2399
rfemur -6.83508 -4.6558 27.5627
rtibia 27.0758
rfoot -16.7996 -6.93363
rtoes 11.0155
lfemur -12.2053 3.13476 -16.3892
ltibia 54.1785
lfoot -8.09195 -6.99667
ltoes -6.58095
1555
root -12.2091 17.7702 16.3948 360.436 -250.958 0.632266
lowerback 10.8054 2.30084 -1.73621
upperback 0.668242 2.87081 -0.329417
thorax -5.42686 1.46909 0.19042
lowerneck -17.2509 -5.02052 -9.93734
upperneck 31.8208 -5.53668 7.12351
head 14.3166 -2.27581 3.75118
rclavicle 3.65018e-014 -6.16232e-015
rhumerus -33.699 -9.56782 -84.0786
rradius 29.9636
rwrist 4.38614
rhand -15.5712 6.84232
rfingers 7.12502
rthumb 10.6138 -22.8696
lclavicle 3.65018e-014 -6.16232e-015
lhumerus -33.5204 4.91958 79.8422
lradius 35.6239
lwrist -1.17691
lhand -20.5907 26.2582
lfingers 7.12502
lthumb 5.76953 56.1597
rfemur -6.5172 -4.35417 27.2187
rtibia 27.0363
rfoot -16.8723 -6.71237
rtoes 8.95768
lfemur -12.7593 2.40956 -16.8946
ltibia 54.3519
lfoot -9.10908 -7.14124
ltoes -10.6681
1556
root -12.1706 17.7628 16.3904 364.717 -251.501 4.55273
lowerback 10.7007 2.19277 -0.597056
upperback 0.38542 2.87777 0.0500658
thorax -5.62917 1.44528 -0.0557271
lowerneck -17.2436 -4.97072 -9.81482
upperneck 31.8358 -5.45162 6.9497
head 14.3005 -2.25034 3.67238
rclavicle 8.20484e-014 -9.14409e-015
rhumerus -33.6333 -9.77497 -83.8838
rradius 30.0335
rwrist 4.22457
rhand -15.2633 7.17939
rfingers 7.12502
rthumb 10.9107 -22.5171
lclavicle 8.20484e-014 -9.14409e-015
lhumerus -33.7444 4.82436 80.0409
lradius 35.7085
lwrist -1.02802
lhand -20.1495 26.3936
lfingers 7.12502
lthumb 6.1955 56.283
rfemur -6.99757 -3.51225 28.7676
rtibia 26.9549
rfoot -16.8182 -6.87157
rtoes 10.1398
lfemur -14.3981 1.69568 -15.4878
ltibia 54.4908
lfoot -9.57109 -8.07655
ltoes -12.7834
1557
root -12.1026 17.7512 16.3649 365.344 -252.203 5.34484
lowerback 10.8452 2.07187 -0.432013
upperback 0.42081 2.75081 0.275586
thorax -5.67558 1.38168 0.101916
lowerneck -17.3439 -4.87122 -10.1557
upperneck 31.9172 -5.16995 6.88972
head 14.3398 -2.18222 3.7587
rclavicle -1.70209e-014 -7.25564e-015
rhumerus -33.4726 -9.46437 -83.6427
rradius 30.1194
rwrist 3.93397
rhand -14.8635 7.60321
rfingers 7.12502
rthumb 11.2964 -22.0726
lclavicle -1.70209e-014 -7.25564e-015
lhumerus -34.1003 5.41958 80.2633
lradius 35.8469
lwrist -1.1846
lhand -20.2189 26.7828
lfingers 7.12502
lthumb 6.12851 56.6742
rfemur -6.47215 -3.16809 28.9675
rtibia 26.6744
rfoot -16.937 -6.71186
rtoes 10.6526
lfemur -14.8986 0.84156 -15.3596
ltibia 54.4848
lfoot -10.1254 -8.43276
ltoes -12.2806
1558
root -11.9942 17.7552 16.3315 362.21 -253.291 2.87923
lowerback 11.0966 2.04496 -1.34124
upperback 0.817671 2.61483 0.34984
thorax -5.44201 1.34152 0.710409
lowerneck -17.4212 -4.66933 -10.5131
upperneck 31.7963 -4.6546 6.57453
head 14.2489 -2.05538 3.77325
rclavicle 8.97637e-015 -6.36111e-015
rhumerus -33.0918 -8.82083 -83.3988
rradius 30.1306
rwrist 3.58163
rhand -14.568 7.98172
rfingers 7.12502
rthumb 11.5814 -21.6783
lclavicle 8.97637e-015 -6.36111e-015
lhumerus -34.4909 6.23999 80.5921
lradius 36.0807
lwrist -1.23749
lhand -20.7128 26.3931
lfingers 7.12502
lthumb 5.65165 56.2977
rfemur -5.03102 -2.88239 27.9412
rtibia 26.5126
rfoot -17.4334 -6.26275
rtoes 10.8587
lfemur -14.2371 0.0306984 -16.4562
ltibia 54.2103
lfoot -10.9122 -8.19846
ltoes -12.0631
1559
root -11.9186 17.7394 16.3426 367.04 -253.786 7.93416
lowerback 11.1352 1.94051 -0.338313
upperback 0.837137 2.63413 0.886929
thorax -5.42428 1.33478 0.704105
lowerneck -17.2061 -4.53867 -10.0761
upperneck 31.4779 -4.39935 5.8536
head 13.9973 -1.99791 3.43067
rclavicle -4.98794e-014 -7.30534e-015
rhumerus -32.9671 -8.86948 -83.1834
rradius 30.2639
rwrist 3.19697
rhand -14.1908 8.28655
rfingers 7.12502
rthumb 11.9451 -21.3526
lclavicle -4.98794e-014 -7.30534e-015
lhumerus -34.7422 6.1126 80.9038
lradius 36.2457
lwrist -0.979954
lhand -21.4362 25.2035
lfingers 7.12502
lthumb 4.9532 55.1256
rfemur -4.61913 -1.85355 29.6666
rtibia 26.2229
rfoot -17.456 -6.75616
rtoes 10.9481
lfemur -15.0727 -0.615538 -14.8059
ltibia 54.1258
lfoot -11.4945 -8.35631
ltoes -13.1916
